<svg width="57" height="57" viewBox="0 0 57 57" fill="none" xmlns="http://www.w3.org/2000/svg">
<rect x="0.341309" y="0.195129" width="56" height="56" rx="28" fill="#EBFBFE"/>
<path fill-rule="evenodd" clip-rule="evenodd" d="M19.3415 20.1951C19.3415 15.2246 23.3709 11.1951 28.3415 11.1951C33.312 11.1951 37.3415 15.2246 37.3415 20.1951C37.3415 25.1657 33.312 29.1951 28.3415 29.1951C23.3709 29.1951 19.3415 25.1657 19.3415 20.1951Z" fill="#59DBBC"/>
<path fill-rule="evenodd" clip-rule="evenodd" d="M11.844 48.4058C11.9987 39.4263 19.3255 32.1951 28.3415 32.1951C37.3577 32.1951 44.6847 39.4266 44.839 48.4064C44.8492 49.002 44.5061 49.5471 43.9648 49.7955C39.2069 51.9787 33.9145 53.1951 28.3421 53.1951C22.7692 53.1951 17.4763 51.9785 12.7181 49.7949C12.1768 49.5465 11.8337 49.0013 11.844 48.4058Z" fill="#59DBBC"/>
</svg>
