<svg width="20" height="23" viewBox="0 0 20 23" fill="none" xmlns="http://www.w3.org/2000/svg">
<g clip-path="url(#clip0_80_497)">
<path d="M5.76353 2.72713V0.977051C5.76391 0.849201 5.78986 0.722689 5.83987 0.604797C5.88988 0.486905 5.96296 0.379961 6.05492 0.29012C6.14587 0.198678 6.25423 0.12596 6.37374 0.0761651C6.49325 0.02637 6.62155 0.000483549 6.75123 0L13.2451 0C13.5057 0.00109843 13.7553 0.104034 13.9395 0.286377C14.1238 0.468607 14.2279 0.715517 14.229 0.973307V2.72339H19.3529C19.4369 2.72289 19.5201 2.73886 19.5978 2.77036C19.6755 2.80186 19.7461 2.84827 19.8056 2.90692C19.8651 2.96557 19.9122 3.03529 19.9443 3.11205C19.9763 3.18882 19.9927 3.2711 19.9925 3.35417V5.53662C19.9935 5.6197 19.9779 5.70217 19.9467 5.7793C19.9155 5.85644 19.8692 5.92673 19.8105 5.98618C19.7518 6.04562 19.6819 6.09305 19.6047 6.12575C19.5275 6.15845 19.4445 6.17578 19.3605 6.17676H18.6396L17.0691 22.5021C17.0547 22.6392 16.9899 22.7662 16.887 22.859C16.784 22.9519 16.6502 23.0041 16.5109 23.0056H3.48727C3.33835 23.0056 3.19538 22.9478 3.0892 22.8445C2.98301 22.7412 2.92211 22.6007 2.91963 22.4535L1.3605 6.17676H0.637699C0.553231 6.17652 0.469648 6.15973 0.391777 6.12735C0.313905 6.09498 0.243287 6.04767 0.184001 5.98816C0.124714 5.92864 0.0779337 5.85809 0.04636 5.78059C0.0147862 5.70309 -0.000955153 5.62017 4.48212e-05 5.53662V3.35791C-0.000204981 3.27501 0.0161179 3.19287 0.0480745 3.11623C0.0800311 3.03959 0.126991 2.96995 0.186252 2.91133C0.245514 2.85271 0.315907 2.80626 0.393384 2.77464C0.47086 2.74303 0.553891 2.72689 0.637699 2.72713H5.76353ZM12.6263 2.72713V1.59285H7.37942V2.72713H12.6263ZM9.36239 9.21834C9.36239 9.04956 9.43017 8.88769 9.55082 8.76834C9.67147 8.649 9.8351 8.58195 10.0057 8.58195C10.1763 8.58195 10.34 8.649 10.4606 8.76834C10.5813 8.88769 10.6491 9.04956 10.6491 9.21834V18.9159C10.6491 18.9994 10.6324 19.0822 10.6001 19.1594C10.5677 19.2366 10.5204 19.3068 10.4606 19.3659C10.4009 19.4249 10.33 19.4718 10.2519 19.5038C10.1739 19.5358 10.0902 19.5522 10.0057 19.5522C9.92124 19.5522 9.83758 19.5358 9.75953 19.5038C9.68148 19.4718 9.61056 19.4249 9.55082 19.3659C9.49108 19.3068 9.44369 19.2366 9.41136 19.1594C9.37903 19.0822 9.36239 18.9994 9.36239 18.9159V9.21834ZM13.1675 9.17155C13.1689 9.08556 13.188 9.00075 13.2235 8.92224C13.259 8.84373 13.3102 8.77315 13.374 8.71476C13.4378 8.65637 13.513 8.61139 13.5949 8.58254C13.6768 8.55368 13.7637 8.54154 13.8505 8.54686C13.9373 8.55218 14.0221 8.57484 14.0998 8.61347C14.1774 8.65211 14.2464 8.70592 14.3024 8.77165C14.3585 8.83739 14.4005 8.91368 14.4259 8.99592C14.4514 9.07817 14.4597 9.16465 14.4504 9.25016L13.8127 18.9552C13.7951 19.1182 13.7145 19.2683 13.5877 19.374C13.4609 19.4797 13.2978 19.5329 13.1323 19.5225C12.9669 19.5122 12.8118 19.439 12.6996 19.3183C12.5873 19.1976 12.5265 19.0387 12.5298 18.8747L13.1675 9.17155ZM5.54971 9.25016C5.5445 9.16696 5.5559 9.08355 5.58326 9.00471C5.61063 8.92586 5.65343 8.85312 5.70921 8.79064C5.765 8.72815 5.83268 8.67715 5.90839 8.64054C5.9841 8.60393 6.06636 8.58243 6.15047 8.57727C6.23458 8.57211 6.3189 8.58339 6.3986 8.61046C6.47831 8.63753 6.55184 8.67987 6.615 8.73505C6.67817 8.79023 6.72973 8.85718 6.76674 8.93208C6.80375 9.00697 6.82548 9.08835 6.8307 9.17155L7.47592 18.8672C7.48671 19.0352 7.42958 19.2006 7.31709 19.327C7.2046 19.4534 7.04598 19.5303 6.87611 19.541C6.70624 19.5517 6.53904 19.4952 6.4113 19.3839C6.28355 19.2726 6.20573 19.1157 6.19494 18.9477L5.54971 9.25765V9.25016ZM17.5043 6.24788H2.49579L3.99815 21.8863H16L17.5138 6.24788H17.5043Z" fill="#DF4949"/>
</g>
<defs>
<clipPath id="clip0_80_497">
<rect width="20" height="23" fill="white"/>
</clipPath>
</defs>
</svg>
