<svg width="26" height="30" viewBox="0 0 26 30" fill="none" xmlns="http://www.w3.org/2000/svg">
<path d="M4.75823 10.2527V8.84616C4.75823 4.18511 8.53675 0.406593 13.1978 0.406593C17.8588 0.406593 21.6374 4.18511 21.6374 8.84616V10.2527H24.4505C25.2274 10.2527 25.8571 10.8825 25.8571 11.6593V28.5385C25.8571 29.3153 25.2274 29.9451 24.4505 29.9451H1.94505C1.16821 29.9451 0.538452 29.3153 0.538452 28.5385V11.6593C0.538452 10.8825 1.16821 10.2527 1.94505 10.2527H4.75823ZM23.0439 13.0659H3.35164V27.1319H23.0439V13.0659ZM11.7912 21.1291C10.9503 20.6427 10.3846 19.7336 10.3846 18.6923C10.3846 17.1386 11.6441 15.8791 13.1978 15.8791C14.7515 15.8791 16.011 17.1386 16.011 18.6923C16.011 19.7336 15.4452 20.6427 14.6044 21.1291V24.3187H11.7912V21.1291ZM7.57142 10.2527H18.8242V8.84616C18.8242 5.73879 16.3051 3.21978 13.1978 3.21978C10.0904 3.21978 7.57142 5.73879 7.57142 8.84616V10.2527Z" fill="#1C1C1C"/>
</svg>
