<svg width="35" height="34" viewBox="0 0 35 34" fill="none" xmlns="http://www.w3.org/2000/svg">
<path d="M28.4506 30.9451H25.6374V28.1319C25.6374 25.8013 23.7482 23.9121 21.4176 23.9121H12.978C10.6475 23.9121 8.75826 25.8013 8.75826 28.1319V30.9451H5.94507V28.1319C5.94507 24.2477 9.09384 21.0989 12.978 21.0989H21.4176C25.3018 21.0989 28.4506 24.2477 28.4506 28.1319V30.9451ZM17.1978 18.2857C12.5368 18.2857 8.75826 14.5072 8.75826 9.84616C8.75826 5.18512 12.5368 1.4066 17.1978 1.4066C21.8588 1.4066 25.6374 5.18512 25.6374 9.84616C25.6374 14.5072 21.8588 18.2857 17.1978 18.2857ZM17.1978 15.4725C20.3051 15.4725 22.8242 12.9535 22.8242 9.84616C22.8242 6.7388 20.3051 4.21979 17.1978 4.21979C14.0905 4.21979 11.5714 6.7388 11.5714 9.84616C11.5714 12.9535 14.0905 15.4725 17.1978 15.4725Z" fill="#1C1C1C"/>
</svg>
