<svg width="14" height="14" viewBox="0 0 14 14" fill="none" xmlns="http://www.w3.org/2000/svg">
<g clip-path="url(#clip0_90_807)">
<path d="M10.5998 4.30099C11.5939 4.30099 12.3998 3.4951 12.3998 2.50099C12.3998 1.50688 11.5939 0.700989 10.5998 0.700989C9.60569 0.700989 8.7998 1.50688 8.7998 2.50099C8.7998 3.4951 9.60569 4.30099 10.5998 4.30099Z" stroke="white" stroke-linecap="round" stroke-linejoin="round"/>
<path d="M13.2998 8.80125V7.90123C13.2998 6.41003 12.091 5.20117 10.5998 5.20117C9.58289 5.20117 8.69732 5.76328 8.23682 6.59371" stroke="white" stroke-linecap="round" stroke-linejoin="round"/>
<path d="M3.39961 4.30099C4.39372 4.30099 5.19961 3.4951 5.19961 2.50099C5.19961 1.50688 4.39372 0.700989 3.39961 0.700989C2.4055 0.700989 1.59961 1.50688 1.59961 2.50099C1.59961 3.4951 2.4055 4.30099 3.39961 4.30099Z" stroke="white" stroke-linecap="round" stroke-linejoin="round"/>
<path d="M0.699707 8.80125V7.90123C0.699707 6.41003 1.90857 5.20117 3.39977 5.20117C4.41662 5.20117 5.30218 5.76328 5.76268 6.59371" stroke="white" stroke-linecap="round" stroke-linejoin="round"/>
<path d="M7.00068 9.699C7.9948 9.699 8.80068 8.89311 8.80068 7.899C8.80068 6.90489 7.9948 6.099 7.00068 6.099C6.00657 6.099 5.20068 6.90489 5.20068 7.899C5.20068 8.89311 6.00657 9.699 7.00068 9.699Z" stroke="white" stroke-linecap="round" stroke-linejoin="round"/>
<path d="M9.70089 13.2989C9.70089 11.8077 8.49203 10.5989 7.00083 10.5989C5.50963 10.5989 4.30078 11.8077 4.30078 13.2989" stroke="white" stroke-linecap="round" stroke-linejoin="round"/>
</g>
<defs>
<clipPath id="clip0_90_807">
<rect width="14" height="14" fill="white"/>
</clipPath>
</defs>
</svg>
