<svg width="23" height="22" viewBox="0 0 23 22" fill="none" xmlns="http://www.w3.org/2000/svg">
<g clip-path="url(#clip0_80_499)">
<path d="M1.58058 0H20.4401C21.3131 0 22.0206 0.723413 22.0206 1.59263V20.4074C22.0206 21.2757 21.3123 22 20.4401 22H4.22693C4.10264 22 3.99038 21.9497 3.9091 21.8684L0.131608 18.0905C0.0898065 18.0489 0.0566553 17.9994 0.0340671 17.9449C0.0114789 17.8905 -9.92395e-05 17.832 6.40749e-07 17.7731V1.59263C6.40749e-07 0.722982 0.7075 0 1.58058 0ZM7.50508 19.259C6.91371 19.259 6.91371 18.3601 7.50508 18.3601H14.1272C14.7181 18.3601 14.7181 19.259 14.1272 19.259H7.50508ZM7.50508 16.4901C6.91371 16.4901 6.91371 15.5912 7.50508 15.5912H14.1272C14.7181 15.5912 14.7181 16.4901 14.1272 16.4901H7.50508ZM16.5159 21.0882V15.0639C16.5159 14.3422 15.9194 13.7461 15.1977 13.7461H6.43416C5.71247 13.7461 5.11636 14.3422 5.11636 15.0639V21.0882H16.5159ZM17.4144 15.0639V21.1011H20.4401C20.8207 21.1011 21.1218 20.7841 21.1218 20.4074V1.59263C21.1218 1.21501 20.8211 0.89889 20.4401 0.89889H17.4144V8.21774C17.4144 9.43533 16.4153 10.4349 15.1977 10.4349H6.43416C5.21528 10.4349 4.21747 9.43662 4.21747 8.21774V0.89889H1.58058C1.19909 0.89889 0.89889 1.21458 0.89889 1.59263V17.5868L4.21747 20.9054V15.0639C4.21747 13.8459 5.21614 12.8472 6.43416 12.8472H15.1977C16.4114 12.8472 17.4144 13.8502 17.4144 15.0639ZM16.5159 8.21774V0.89889H5.11636V8.21774C5.11636 8.9403 5.71204 9.53597 6.43416 9.53597H15.1977C15.9189 9.53597 16.5159 8.93901 16.5159 8.21774Z" fill="#2743FD"/>
</g>
<defs>
<clipPath id="clip0_80_499">
<rect width="22.0206" height="22" fill="white"/>
</clipPath>
</defs>
</svg>
