<svg width="14" height="14" viewBox="0 0 14 14" fill="none" xmlns="http://www.w3.org/2000/svg">
<g clip-path="url(#clip0_80_456)">
<path d="M5.23016 2.25L5.66016 1.14C5.73268 0.952064 5.86027 0.790411 6.02621 0.676212C6.19216 0.562014 6.38872 0.500595 6.59016 0.5H7.41016C7.6116 0.500595 7.80817 0.562014 7.97411 0.676212C8.14006 0.790411 8.26764 0.952064 8.34016 1.14L8.77016 2.25L10.2301 3.09L11.4101 2.91C11.6066 2.88333 11.8066 2.91567 11.9847 3.00292C12.1627 3.09017 12.3108 3.22838 12.4101 3.4L12.8101 4.1C12.9126 4.27435 12.9599 4.47568 12.9456 4.67742C12.9313 4.87916 12.8562 5.07183 12.7301 5.23L12.0001 6.16V7.84L12.7501 8.77C12.8762 8.92817 12.9513 9.12084 12.9656 9.32258C12.9799 9.52432 12.9326 9.72565 12.8301 9.9L12.4301 10.6C12.3308 10.7716 12.1827 10.9098 12.0047 10.9971C11.8266 11.0843 11.6266 11.1167 11.4301 11.09L10.2501 10.91L8.79016 11.75L8.36016 12.86C8.28764 13.0479 8.16006 13.2096 7.99411 13.3238C7.82817 13.438 7.6316 13.4994 7.43016 13.5H6.59016C6.38872 13.4994 6.19216 13.438 6.02621 13.3238C5.86027 13.2096 5.73268 13.0479 5.66016 12.86L5.23016 11.75L3.77016 10.91L2.59016 11.09C2.39368 11.1167 2.1937 11.0843 2.01564 10.9971C1.83759 10.9098 1.68949 10.7716 1.59016 10.6L1.19016 9.9C1.08766 9.72565 1.04044 9.52432 1.05472 9.32258C1.069 9.12084 1.14412 8.92817 1.27016 8.77L2.00016 7.84V6.16L1.25016 5.23C1.12412 5.07183 1.049 4.87916 1.03472 4.67742C1.02044 4.47568 1.06766 4.27435 1.17016 4.1L1.57016 3.4C1.66949 3.22838 1.81759 3.09017 1.99564 3.00292C2.1737 2.91567 2.37368 2.88333 2.57016 2.91L3.75016 3.09L5.23016 2.25ZM5.00016 7C5.00016 7.39556 5.11746 7.78224 5.33722 8.11114C5.55699 8.44004 5.86934 8.69638 6.23479 8.84776C6.60025 8.99913 7.00238 9.03874 7.39034 8.96157C7.7783 8.8844 8.13467 8.69392 8.41438 8.41421C8.69408 8.13451 8.88456 7.77814 8.96173 7.39018C9.0389 7.00222 8.9993 6.60009 8.84792 6.23463C8.69655 5.86918 8.4402 5.55682 8.1113 5.33706C7.7824 5.1173 7.39572 5 7.00016 5C6.46973 5 5.96102 5.21071 5.58595 5.58579C5.21088 5.96086 5.00016 6.46957 5.00016 7Z" stroke="white" stroke-linecap="round" stroke-linejoin="round"/>
</g>
<defs>
<clipPath id="clip0_80_456">
<rect width="14" height="14" fill="white"/>
</clipPath>
</defs>
</svg>
