<svg width="14" height="14" viewBox="0 0 14 14" fill="none" xmlns="http://www.w3.org/2000/svg">
<g clip-path="url(#clip0_90_815)">
<path d="M7 5.5C10.5899 5.5 13.5 4.38071 13.5 3C13.5 1.61929 10.5899 0.5 7 0.5C3.41015 0.5 0.5 1.61929 0.5 3C0.5 4.38071 3.41015 5.5 7 5.5Z" stroke="white" stroke-linecap="round" stroke-linejoin="round"/>
<path d="M0.5 3V11C0.5 12.38 3.41 13.5 7 13.5C10.59 13.5 13.5 12.38 13.5 11V3" stroke="white" stroke-linecap="round" stroke-linejoin="round"/>
<path d="M13.5 7C13.5 8.38 10.59 9.5 7 9.5C3.41 9.5 0.5 8.38 0.5 7" stroke="white" stroke-linecap="round" stroke-linejoin="round"/>
</g>
<defs>
<clipPath id="clip0_90_815">
<rect width="14" height="14" fill="white"/>
</clipPath>
</defs>
</svg>
