<svg width="14" height="14" viewBox="0 0 14 14" fill="none" xmlns="http://www.w3.org/2000/svg">
<path d="M12.5 1.5H6.5C5.94772 1.5 5.5 1.94772 5.5 2.5V6.5C5.5 7.05228 5.94772 7.5 6.5 7.5H12.5C13.0523 7.5 13.5 7.05228 13.5 6.5V2.5C13.5 1.94772 13.0523 1.5 12.5 1.5Z" stroke="white" stroke-linecap="round" stroke-linejoin="round"/>
<path d="M11 10H4C3.73478 10 3.48043 9.89464 3.29289 9.70711C3.10536 9.51957 3 9.26522 3 9V4" stroke="white" stroke-linecap="round" stroke-linejoin="round"/>
<path d="M9 12.5H1.5C1.23478 12.5 0.98043 12.3946 0.792893 12.2071C0.605357 12.0196 0.5 11.7652 0.5 11.5V6" stroke="white" stroke-linecap="round" stroke-linejoin="round"/>
</svg>
