<svg width="49" height="49" viewBox="0 0 49 49" fill="none" xmlns="http://www.w3.org/2000/svg">
<path fill-rule="evenodd" clip-rule="evenodd" d="M15.3415 12.1951C15.3415 7.22457 19.3709 3.19513 24.3415 3.19513C29.312 3.19513 33.3415 7.22457 33.3415 12.1951C33.3415 17.1657 29.312 21.1951 24.3415 21.1951C19.3709 21.1951 15.3415 17.1657 15.3415 12.1951Z" fill="#59DBBC"/>
<path fill-rule="evenodd" clip-rule="evenodd" d="M7.84397 40.4058C7.99865 31.4263 15.3255 24.1951 24.3415 24.1951C33.3577 24.1951 40.6847 31.4266 40.839 40.4064C40.8492 41.002 40.5061 41.5471 39.9648 41.7955C35.2069 43.9787 29.9145 45.1951 24.3421 45.1951C18.7692 45.1951 13.4763 43.9785 8.71813 41.7949C8.17679 41.5465 7.83372 41.0013 7.84397 40.4058Z" fill="#59DBBC"/>
</svg>
